<svg version="1.1" xmlns="http://www.w3.org/2000/svg" viewBox="0 0 692.800048828125 392.00001525878906">
  <!-- svg-source:excalidraw -->
  
  <defs>
    <style class="style-fonts">
      @font-face {
        font-family: "Virgil";
        src: url("https://excalidraw.com/Virgil.woff2");
      }
      @font-face {
        font-family: "Cascadia";
        src: url("https://excalidraw.com/Cascadia.woff2");
      }
    </style>
  </defs>
  <rect x="0" y="0" width="692.800048828125" height="392.00001525878906" fill="#ffffff"></rect><g transform="translate(162.79998779296875 88.39999389648438) rotate(0 -32.79998779296875 76.00000762939453)" stroke="none"><path fill="#000000" d="M 1.52,0.87 Q 1.52,0.87 -0.36,4.06 -2.26,7.25 -5.66,11.67 -9.07,16.09 -13.77,20.98 -18.48,25.86 -23.96,30.70 -29.43,35.55 -34.52,39.89 -39.60,44.23 -43.84,47.69 -48.08,51.15 -50.81,53.31 -53.54,55.47 -54.82,56.58 -56.11,57.70 -56.23,58.32 -56.35,58.95 -56.51,59.06 -56.68,59.17 -56.87,59.23 -57.06,59.30 -57.26,59.31 -57.46,59.33 -57.66,59.30 -57.85,59.27 -58.04,59.19 -58.22,59.12 -58.38,59.00 -58.55,58.88 -58.67,58.73 -58.80,58.57 -58.89,58.39 -58.98,58.21 -59.02,58.02 -59.06,57.82 -59.05,57.62 -59.05,57.42 -58.99,57.23 -58.94,57.04 -58.84,56.86 -58.74,56.69 -58.60,56.54 -58.47,56.40 -55.40,56.53 -52.34,56.66 -48.15,56.53 -43.96,56.40 -38.27,55.90 -32.58,55.39 -28.09,54.95 -23.59,54.51 -21.43,54.32 -19.27,54.14 -18.38,54.16 -17.48,54.18 -17.29,54.19 -17.10,54.20 -16.91,54.25 -16.73,54.30 -16.56,54.40 -16.39,54.49 -16.25,54.62 -16.11,54.75 -16.01,54.92 -15.90,55.08 -15.84,55.26 -15.78,55.44 -15.76,55.63 -15.75,55.83 -15.77,56.02 -15.80,56.21 -15.88,56.38 -15.95,56.56 -16.07,56.72 -16.18,56.87 -16.33,57.00 -16.48,57.12 -16.65,57.20 -16.82,57.29 -17.01,57.33 -17.20,57.37 -21.26,60.44 -25.32,63.51 -30.74,66.55 -36.16,69.58 -42.38,72.71 -48.61,75.83 -53.04,78.50 -57.47,81.18 -59.58,82.54 -61.70,83.90 -62.54,84.82 -63.38,85.74 -63.56,85.82 -63.73,85.91 -63.92,85.95 -64.11,85.99 -64.30,85.98 -64.50,85.98 -64.68,85.93 -64.87,85.88 -65.04,85.78 -65.21,85.69 -65.35,85.55 -65.49,85.42 -65.60,85.26 -65.70,85.09 -65.77,84.91 -65.83,84.73 -65.85,84.53 -65.87,84.34 -65.84,84.15 -65.81,83.96 -65.73,83.78 -65.66,83.60 -65.55,83.44 -65.43,83.29 -65.28,83.16 -65.13,83.04 -63.48,83.63 -61.83,84.22 -59.30,84.60 -56.77,84.98 -52.23,84.97 -47.70,84.96 -43.06,84.29 -38.42,83.62 -34.43,82.44 -30.44,81.26 -27.71,79.68 -24.97,78.09 -23.24,75.95 -21.50,73.80 -20.80,70.99 -20.10,68.17 -19.77,64.90 -19.44,61.64 -19.29,58.86 -19.14,56.09 -19.53,54.13 -19.91,52.17 -20.20,51.06 -20.49,49.95 -20.89,49.46 -21.29,48.96 -21.30,48.75 -21.30,48.54 -21.26,48.33 -21.21,48.13 -21.12,47.94 -21.02,47.74 -20.89,47.58 -20.75,47.42 -20.58,47.29 -20.41,47.17 -20.21,47.09 -20.02,47.01 -19.81,46.98 -19.60,46.94 -19.39,46.96 -19.18,46.98 -18.97,47.05 -18.77,47.12 -18.60,47.24 -18.42,47.36 -18.27,47.51 -18.13,47.66 -18.02,47.85 -17.92,48.03 -17.86,48.24 -17.81,48.44 -18.43,49.38 -19.06,50.31 -19.25,52.08 -19.44,53.85 -19.86,57.71 -20.29,61.56 -20.71,67.34 -21.14,73.12 -21.79,81.11 -22.44,89.10 -23.88,97.61 -25.32,106.13 -27.09,114.12 -28.86,122.12 -30.54,128.29 -32.22,134.47 -34.12,138.79 -36.02,143.11 -38.05,145.73 -40.08,148.36 -41.96,149.76 -43.85,151.17 -45.66,151.88 -47.48,152.59 -49.22,152.93 -50.96,153.26 -52.63,153.42 -54.31,153.59 -55.49,153.72 -56.66,153.86 -58.28,153.60 -59.89,153.34 -60.59,151.37 -61.30,149.40 -58.76,146.95 -56.22,144.50 -48.73,140.18 -41.24,135.87 -38.13,134.13 -35.01,132.39 -34.75,132.29 -34.49,132.19 -34.22,132.18 -33.94,132.17 -33.68,132.24 -33.41,132.32 -33.18,132.48 -32.96,132.64 -32.79,132.86 -32.63,133.08 -32.54,133.34 -32.46,133.61 -32.46,133.88 -32.46,134.16 -32.55,134.42 -32.65,134.68 -32.82,134.90 -32.99,135.12 -33.22,135.27 -33.45,135.42 -33.71,135.49 -33.98,135.56 -34.26,135.54 -34.53,135.53 -34.79,135.42 -35.04,135.32 -35.25,135.13 -35.46,134.95 -35.60,134.71 -35.74,134.48 -35.80,134.21 -35.85,133.94 -35.82,133.66 -35.79,133.39 -35.67,133.14 -35.55,132.89 -35.36,132.69 -35.16,132.49 -34.92,132.36 -34.67,132.24 -34.40,132.20 -34.13,132.15 -33.85,132.20 -33.58,132.25 -33.34,132.38 -33.10,132.51 -32.91,132.72 -32.72,132.92 -32.61,133.17 -32.49,133.42 -32.47,133.70 -32.44,133.98 -32.50,134.24 -32.57,134.51 -32.71,134.75 -32.86,134.98 -33.07,135.16 -33.28,135.34 -33.28,135.34 -33.28,135.34 -36.32,137.20 -39.37,139.07 -46.36,143.25 -53.36,147.43 -55.69,149.81 -58.02,152.19 -57.38,151.10 -56.74,150.01 -55.63,150.06 -54.52,150.11 -52.97,150.08 -51.42,150.04 -49.91,149.91 -48.40,149.78 -46.89,149.40 -45.39,149.01 -43.78,147.85 -42.17,146.69 -40.32,144.35 -38.48,142.00 -36.66,137.88 -34.84,133.75 -33.20,127.64 -31.55,121.53 -29.81,113.60 -28.08,105.67 -26.69,97.27 -25.29,88.88 -24.69,80.89 -24.08,72.91 -23.71,67.08 -23.34,61.25 -22.98,57.27 -22.62,53.29 -21.96,51.13 -21.29,48.96 -21.30,48.75 -21.30,48.54 -21.26,48.33 -21.21,48.13 -21.12,47.94 -21.02,47.75 -20.89,47.58 -20.75,47.42 -20.58,47.29 -20.41,47.17 -20.21,47.09 -20.02,47.01 -19.81,46.98 -19.60,46.94 -19.39,46.96 -19.18,46.98 -18.97,47.05 -18.77,47.12 -18.60,47.24 -18.42,47.36 -18.27,47.51 -18.13,47.66 -18.02,47.85 -17.92,48.03 -17.86,48.24 -17.81,48.44 -17.60,48.91 -17.40,49.38 -17.35,50.53 -17.30,51.68 -16.89,53.94 -16.48,56.21 -16.63,59.06 -16.78,61.91 -17.14,65.38 -17.50,68.86 -18.43,72.15 -19.36,75.44 -21.45,77.94 -23.55,80.43 -26.59,82.18 -29.63,83.93 -33.81,85.19 -37.99,86.45 -42.84,87.18 -47.68,87.91 -52.47,87.96 -57.26,88.00 -60.32,86.87 -63.38,85.74 -63.55,85.82 -63.73,85.91 -63.92,85.95 -64.11,85.99 -64.30,85.98 -64.50,85.98 -64.68,85.93 -64.87,85.88 -65.04,85.78 -65.21,85.69 -65.35,85.55 -65.49,85.42 -65.60,85.26 -65.70,85.09 -65.77,84.91 -65.83,84.73 -65.85,84.53 -65.87,84.34 -65.84,84.15 -65.81,83.96 -65.73,83.78 -65.66,83.60 -65.55,83.44 -65.43,83.29 -65.28,83.16 -65.13,83.04 -64.16,82.32 -63.19,81.61 -61.05,80.21 -58.91,78.80 -54.40,76.06 -49.89,73.31 -43.74,70.18 -37.59,67.05 -32.28,64.03 -26.98,61.00 -23.71,58.81 -20.43,56.62 -18.96,55.40 -17.48,54.18 -17.29,54.19 -17.10,54.20 -16.91,54.25 -16.73,54.30 -16.56,54.40 -16.39,54.49 -16.25,54.62 -16.11,54.75 -16.01,54.92 -15.90,55.08 -15.84,55.26 -15.78,55.44 -15.76,55.63 -15.75,55.83 -15.77,56.02 -15.80,56.21 -15.88,56.38 -15.95,56.56 -16.07,56.72 -16.18,56.87 -16.33,57.00 -16.48,57.12 -16.65,57.20 -16.82,57.29 -17.01,57.33 -17.20,57.37 -18.13,57.09 -19.05,56.82 -21.19,57.02 -23.32,57.22 -27.83,57.68 -32.33,58.14 -38.10,58.67 -43.86,59.21 -48.22,59.36 -52.57,59.52 -54.46,59.24 -56.35,58.95 -56.51,59.06 -56.68,59.17 -56.87,59.23 -57.06,59.30 -57.26,59.31 -57.46,59.33 -57.66,59.30 -57.85,59.27 -58.04,59.19 -58.22,59.12 -58.38,59.00 -58.55,58.88 -58.67,58.73 -58.80,58.57 -58.89,58.39 -58.98,58.21 -59.02,58.02 -59.06,57.82 -59.05,57.62 -59.05,57.42 -58.99,57.23 -58.94,57.04 -58.84,56.86 -58.74,56.69 -58.60,56.54 -58.47,56.40 -58.33,56.05 -58.19,55.70 -56.71,54.52 -55.23,53.34 -52.53,51.18 -49.83,49.02 -45.63,45.56 -41.43,42.10 -36.38,37.75 -31.34,33.40 -25.98,28.61 -20.63,23.81 -16.08,19.01 -11.53,14.21 -8.31,9.92 -5.09,5.62 -3.31,2.37 -1.52,-0.87 -1.39,-1.03 -1.27,-1.20 -1.10,-1.34 -0.94,-1.47 -0.75,-1.56 -0.56,-1.66 -0.35,-1.70 -0.14,-1.74 0.06,-1.74 0.27,-1.73 0.47,-1.67 0.68,-1.61 0.86,-1.51 1.04,-1.40 1.20,-1.26 1.35,-1.11 1.46,-0.93 1.58,-0.75 1.64,-0.55 1.71,-0.35 1.73,-0.14 1.75,0.06 1.72,0.27 1.68,0.48 1.60,0.67 1.52,0.87 1.52,0.87 L 1.52,0.87 Z"></path></g><g transform="translate(214 110.80000305175781) rotate(0 18.800018310546875 33.20000457763672)" stroke="none"><path fill="#000000" d="M 1.69,0.56 Q 1.69,0.56 0.48,3.99 -0.72,7.42 -2.63,13.23 -4.54,19.05 -7.46,25.95 -10.38,32.85 -14.19,39.51 -18.00,46.17 -21.22,51.72 -24.44,57.28 -26.53,60.37 -28.61,63.45 -29.39,64.58 -30.17,65.71 -30.30,65.86 -30.43,66.01 -30.58,66.12 -30.74,66.23 -30.92,66.30 -31.10,66.37 -31.29,66.40 -31.49,66.42 -31.68,66.40 -31.87,66.38 -32.05,66.31 -32.23,66.25 -32.40,66.14 -32.56,66.03 -32.69,65.89 -32.82,65.75 -32.91,65.58 -33.00,65.41 -33.05,65.22 -33.10,65.03 -33.10,64.84 -33.10,64.64 -33.06,64.45 -33.02,64.27 -32.93,64.09 -32.84,63.92 -33.47,60.45 -34.10,56.99 -33.19,53.51 -32.28,50.03 -30.00,45.74 -27.71,41.45 -24.17,36.84 -20.63,32.23 -16.57,27.96 -12.51,23.69 -7.52,19.54 -2.54,15.40 2.84,12.00 8.23,8.61 13.54,6.00 18.85,3.40 23.49,2.04 28.13,0.67 31.94,-0.12 35.76,-0.92 39.78,-1.04 43.80,-1.16 47.88,-0.50 51.96,0.14 55.37,1.37 58.78,2.59 61.34,3.56 63.90,4.53 65.56,5.39 67.23,6.24 68.24,6.78 69.25,7.32 70.11,8.13 70.97,8.95 71.47,9.99 71.98,11.02 72.08,13.24 72.19,15.46 71.43,17.95 70.66,20.44 69.87,22.97 69.07,25.50 67.50,28.33 65.93,31.16 64.09,33.74 62.24,36.32 60.74,38.12 59.25,39.91 57.91,41.23 56.58,42.55 55.01,43.65 53.44,44.75 51.16,45.24 48.88,45.74 46.08,45.90 43.27,46.05 40.98,46.26 38.68,46.47 38.41,46.44 38.13,46.40 37.88,46.28 37.63,46.17 37.43,45.97 37.22,45.78 37.10,45.53 36.97,45.29 36.92,45.01 36.88,44.73 36.93,44.46 36.98,44.19 37.11,43.94 37.24,43.70 37.44,43.51 37.65,43.32 37.90,43.20 38.16,43.09 38.43,43.06 38.71,43.03 38.98,43.09 39.25,43.15 39.49,43.30 39.73,43.44 39.91,43.66 40.09,43.87 40.19,44.13 40.29,44.39 40.30,44.67 40.31,44.95 40.24,45.22 40.16,45.48 40.00,45.71 39.84,45.94 39.62,46.11 39.40,46.28 39.13,46.36 38.87,46.45 38.59,46.45 38.31,46.44 38.05,46.35 37.78,46.26 37.56,46.09 37.34,45.92 37.19,45.69 37.03,45.46 36.96,45.19 36.89,44.92 36.91,44.64 36.92,44.36 37.03,44.11 37.13,43.85 37.32,43.64 37.50,43.43 37.74,43.29 37.98,43.14 38.25,43.09 38.52,43.03 38.52,43.03 38.52,43.03 40.80,43.02 43.08,43.02 45.66,42.82 48.24,42.62 49.97,42.29 51.71,41.97 53.09,41.11 54.46,40.26 55.74,39.17 57.01,38.07 58.40,36.34 59.79,34.60 61.48,32.14 63.18,29.67 64.53,27.12 65.89,24.56 66.56,22.00 67.23,19.44 67.75,17.52 68.28,15.61 68.15,13.46 68.03,11.32 66.91,10.05 65.80,8.78 64.38,7.89 62.96,7.00 60.42,6.03 57.88,5.07 54.70,3.91 51.53,2.74 47.69,2.11 43.86,1.47 40.08,1.57 36.30,1.66 32.58,2.45 28.87,3.23 24.45,4.52 20.02,5.80 14.84,8.34 9.66,10.89 4.42,14.19 -0.80,17.49 -5.66,21.54 -10.51,25.58 -14.46,29.76 -18.41,33.93 -21.80,38.36 -25.19,42.80 -27.31,46.79 -29.43,50.79 -30.23,53.82 -31.03,56.86 -30.86,59.44 -30.70,62.02 -30.43,63.87 -30.17,65.71 -30.30,65.86 -30.43,66.01 -30.58,66.12 -30.74,66.23 -30.92,66.30 -31.10,66.37 -31.29,66.40 -31.49,66.42 -31.68,66.40 -31.87,66.38 -32.05,66.31 -32.23,66.25 -32.40,66.14 -32.56,66.03 -32.69,65.89 -32.82,65.75 -32.91,65.58 -33.00,65.41 -33.05,65.22 -33.10,65.03 -33.10,64.84 -33.10,64.64 -33.06,64.45 -33.02,64.27 -32.93,64.09 -32.84,63.92 -31.88,62.91 -30.91,61.91 -28.90,58.89 -26.88,55.87 -23.70,50.30 -20.51,44.74 -16.83,38.21 -13.14,31.69 -10.33,24.89 -7.53,18.09 -5.70,12.23 -3.87,6.37 -2.78,2.90 -1.69,-0.56 -1.60,-0.76 -1.51,-0.95 -1.37,-1.12 -1.24,-1.29 -1.06,-1.42 -0.89,-1.55 -0.69,-1.63 -0.49,-1.72 -0.28,-1.75 -0.07,-1.79 0.14,-1.77 0.35,-1.75 0.56,-1.68 0.76,-1.61 0.95,-1.50 1.13,-1.38 1.28,-1.23 1.43,-1.07 1.54,-0.88 1.64,-0.70 1.70,-0.49 1.76,-0.28 1.77,-0.07 1.78,0.14 1.74,0.35 1.69,0.56 1.69,0.56 L 1.69,0.56 Z"></path></g><g transform="translate(228.4000244140625 149.1999969482422) rotate(0 11.600006103515625 -4.799995422363281)" stroke="none"><path fill="#000000" d="M -0.25,-2.01 Q -0.25,-2.01 1.59,-2.21 3.43,-2.41 5.99,-2.87 8.55,-3.33 11.07,-3.73 13.60,-4.14 15.18,-4.75 16.76,-5.37 17.94,-6.60 19.12,-7.84 20.26,-9.09 21.40,-10.34 21.63,-10.51 21.87,-10.68 22.15,-10.77 22.43,-10.85 22.72,-10.84 23.01,-10.83 23.28,-10.73 23.55,-10.63 23.78,-10.45 24.01,-10.27 24.16,-10.02 24.32,-9.78 24.39,-9.50 24.46,-9.21 24.44,-8.92 24.41,-8.63 24.30,-8.37 24.18,-8.10 23.99,-7.88 23.79,-7.67 23.54,-7.52 23.29,-7.38 23.00,-7.33 22.71,-7.27 22.43,-7.31 22.14,-7.35 21.88,-7.48 21.62,-7.61 21.41,-7.82 21.21,-8.02 21.08,-8.28 20.95,-8.54 20.91,-8.83 20.87,-9.12 20.93,-9.41 20.98,-9.69 21.12,-9.94 21.27,-10.20 21.48,-10.39 21.70,-10.59 21.97,-10.70 22.24,-10.81 22.53,-10.84 22.82,-10.86 23.10,-10.79 23.38,-10.72 23.63,-10.56 23.87,-10.41 24.05,-10.18 24.23,-9.95 24.33,-9.68 24.43,-9.41 24.44,-9.11 24.45,-8.82 24.36,-8.55 24.28,-8.27 24.11,-8.03 23.94,-7.80 23.94,-7.80 23.94,-7.80 22.68,-6.66 21.43,-5.52 19.74,-3.90 18.06,-2.28 16.14,-1.57 14.22,-0.87 11.76,-0.34 9.29,0.17 6.61,0.83 3.92,1.49 2.08,1.75 0.25,2.01 0.00,2.01 -0.23,2.01 -0.47,1.95 -0.71,1.89 -0.92,1.78 -1.14,1.67 -1.32,1.51 -1.51,1.34 -1.65,1.14 -1.79,0.94 -1.87,0.71 -1.96,0.49 -1.99,0.24 -2.02,0.00 -1.99,-0.23 -1.96,-0.47 -1.88,-0.70 -1.79,-0.93 -1.65,-1.13 -1.52,-1.33 -1.33,-1.50 -1.15,-1.66 -0.94,-1.77 -0.72,-1.89 -0.48,-1.95 -0.25,-2.01 -0.25,-2.01 L -0.25,-2.01 Z"></path></g><g transform="translate(246.79998779296875 127.60000610351562) rotate(0 -13.5999755859375 42.400001525878906)" stroke="none"><path fill="#000000" d="M 1.22,1.22 Q 1.22,1.22 -1.57,3.94 -4.37,6.66 -7.39,9.85 -10.42,13.05 -13.54,16.68 -16.66,20.31 -19.12,23.66 -21.58,27.01 -23.10,29.13 -24.62,31.24 -24.01,32.20 -23.40,33.16 -20.57,33.96 -17.74,34.76 -13.39,36.33 -9.05,37.90 -4.60,40.23 -0.16,42.55 3.39,45.20 6.94,47.86 9.46,51.17 11.98,54.49 13.30,57.60 14.63,60.71 14.96,64.26 15.30,67.80 14.23,71.10 13.16,74.39 10.75,77.27 8.34,80.15 4.86,81.90 1.39,83.64 -3.63,84.38 -8.66,85.11 -14.51,84.94 -20.37,84.77 -25.52,83.28 -30.67,81.78 -34.17,78.72 -37.67,75.67 -40.21,71.16 -42.74,66.64 -42.82,66.41 -42.90,66.17 -42.90,65.92 -42.90,65.67 -42.81,65.44 -42.73,65.20 -42.58,65.01 -42.43,64.81 -42.23,64.67 -42.02,64.53 -41.78,64.47 -41.54,64.40 -41.29,64.42 -41.04,64.43 -40.81,64.52 -40.58,64.62 -40.39,64.78 -40.20,64.94 -40.08,65.15 -39.95,65.37 -39.90,65.61 -39.84,65.85 -39.87,66.10 -39.90,66.35 -40.01,66.57 -40.11,66.80 -40.28,66.98 -40.45,67.16 -40.68,67.27 -40.90,67.39 -41.14,67.43 -41.39,67.47 -41.63,67.43 -41.88,67.38 -42.10,67.27 -42.32,67.15 -42.49,66.97 -42.66,66.79 -42.76,66.56 -42.86,66.33 -42.89,66.09 -42.91,65.84 -42.86,65.60 -42.80,65.35 -42.68,65.14 -42.55,64.93 -42.36,64.77 -42.17,64.61 -41.93,64.52 -41.70,64.43 -41.45,64.42 -41.21,64.40 -40.97,64.47 -40.73,64.54 -40.52,64.68 -40.32,64.82 -40.17,65.02 -40.02,65.22 -40.02,65.22 -40.02,65.22 -37.95,69.48 -35.88,73.75 -32.85,76.53 -29.83,79.30 -25.05,80.72 -20.26,82.13 -14.64,82.31 -9.02,82.48 -4.38,81.86 0.26,81.24 3.32,79.80 6.38,78.36 8.51,75.91 10.65,73.46 11.63,70.71 12.60,67.95 12.34,64.85 12.08,61.74 10.91,58.95 9.74,56.16 7.47,53.15 5.21,50.14 1.84,47.66 -1.52,45.17 -5.80,42.99 -10.07,40.81 -14.34,39.35 -18.61,37.89 -21.98,36.96 -25.34,36.04 -26.69,34.93 -28.03,33.83 -27.47,31.73 -26.90,29.63 -25.40,27.48 -23.89,25.32 -21.40,21.86 -18.91,18.40 -15.79,14.68 -12.67,10.96 -9.66,7.66 -6.66,4.37 -3.94,1.57 -1.22,-1.22 -1.06,-1.35 -0.89,-1.48 -0.70,-1.56 -0.51,-1.65 -0.31,-1.69 -0.10,-1.73 0.10,-1.71 0.31,-1.70 0.51,-1.64 0.71,-1.58 0.89,-1.47 1.06,-1.36 1.21,-1.21 1.36,-1.06 1.47,-0.89 1.58,-0.71 1.64,-0.51 1.70,-0.31 1.71,-0.10 1.73,0.10 1.69,0.31 1.65,0.51 1.56,0.70 1.48,0.89 1.35,1.06 1.22,1.22 1.22,1.22 L 1.22,1.22 Z"></path></g><g transform="translate(358 113.19999694824219) rotate(0 0.00005000000000165983 0.00005000000000165983)" stroke="none"><path fill="#000000" d="M 1.57,-1.57 Q 1.57,-1.57 1.77,-1.27 1.98,-0.98 2.09,-0.64 2.20,-0.29 2.19,0.05 2.18,0.41 2.05,0.75 1.93,1.09 1.70,1.37 1.48,1.65 1.18,1.84 0.87,2.04 0.52,2.12 0.18,2.21 -0.17,2.18 -0.53,2.15 -0.86,2.01 -1.19,1.87 -1.46,1.63 -1.73,1.39 -1.90,1.07 -2.08,0.76 -2.15,0.41 -2.21,0.05 -2.17,-0.29 -2.12,-0.65 -1.96,-0.97 -1.80,-1.29 -1.54,-1.54 -1.29,-1.80 -0.97,-1.96 -0.65,-2.12 -0.29,-2.17 0.06,-2.21 0.41,-2.15 0.76,-2.08 1.07,-1.90 1.39,-1.73 1.63,-1.46 1.87,-1.19 2.01,-0.86 2.15,-0.53 2.18,-0.17 2.21,0.18 2.12,0.52 2.03,0.87 1.84,1.18 1.65,1.48 1.37,1.70 1.09,1.93 0.75,2.05 0.41,2.18 0.05,2.19 -0.30,2.20 -0.64,2.09 -0.98,1.98 -1.27,1.77 -1.57,1.56 -1.57,1.57 -1.57,1.57 -1.73,1.35 -1.90,1.14 -2.01,0.90 -2.12,0.66 -2.16,0.39 -2.21,0.13 -2.20,-0.13 -2.18,-0.40 -2.10,-0.65 -2.02,-0.91 -1.88,-1.14 -1.74,-1.36 -1.55,-1.55 -1.36,-1.74 -1.14,-1.88 -0.91,-2.02 -0.65,-2.10 -0.40,-2.18 -0.13,-2.20 0.13,-2.21 0.39,-2.16 0.66,-2.12 0.90,-2.01 1.14,-1.90 1.35,-1.73 1.57,-1.57 1.57,-1.57 L 1.57,-1.57 Z"></path></g><g transform="translate(356.4000244140625 172.40000915527344) rotate(0 0 19.199996948242188)" stroke="none"><path fill="#000000" d="M 1.85,0 Q 1.85,0 1.77,2.76 1.70,5.52 1.65,9.68 1.59,13.84 1.56,17.91 1.52,21.98 1.49,25.55 1.46,29.12 1.58,32.92 1.69,36.72 1.65,36.99 1.60,37.26 1.47,37.50 1.35,37.75 1.15,37.94 0.95,38.12 0.70,38.24 0.45,38.35 0.18,38.38 -0.09,38.41 -0.36,38.36 -0.62,38.30 -0.86,38.15 -1.09,38.01 -1.27,37.80 -1.45,37.59 -1.55,37.34 -1.65,37.08 -1.67,36.81 -1.68,36.54 -1.61,36.27 -1.54,36.01 -1.38,35.78 -1.23,35.55 -1.01,35.39 -0.79,35.22 -0.53,35.13 -0.27,35.04 0.00,35.04 0.27,35.04 0.53,35.13 0.79,35.22 1.01,35.39 1.23,35.55 1.38,35.78 1.54,36.01 1.61,36.27 1.68,36.54 1.67,36.81 1.65,37.08 1.55,37.34 1.45,37.59 1.27,37.80 1.09,38.01 0.86,38.15 0.62,38.30 0.35,38.36 0.09,38.41 -0.18,38.38 -0.45,38.35 -0.70,38.24 -0.95,38.12 -1.15,37.94 -1.35,37.75 -1.48,37.50 -1.60,37.26 -1.65,36.99 -1.69,36.72 -1.69,36.72 -1.69,36.72 -1.58,32.92 -1.46,29.12 -1.49,25.55 -1.52,21.98 -1.56,17.91 -1.59,13.84 -1.65,9.68 -1.70,5.52 -1.77,2.76 -1.85,0 -1.82,-0.22 -1.79,-0.44 -1.71,-0.65 -1.63,-0.86 -1.51,-1.04 -1.38,-1.22 -1.21,-1.37 -1.05,-1.52 -0.85,-1.62 -0.65,-1.73 -0.43,-1.78 -0.22,-1.83 0.00,-1.83 0.22,-1.83 0.43,-1.78 0.65,-1.73 0.85,-1.62 1.05,-1.52 1.21,-1.37 1.38,-1.22 1.51,-1.04 1.63,-0.86 1.71,-0.65 1.79,-0.44 1.82,-0.22 1.85,0.00 1.85,0.00 L 1.85,0 Z"></path></g><g transform="translate(394 123.60000610351562) rotate(0 15.60003662109375 38)" stroke="none"><path fill="#000000" d="M 1.78,-0.14 Q 1.78,-0.14 1.94,2.61 2.11,5.38 2.16,11.44 2.22,17.50 2.22,23.51 2.23,29.52 1.30,35.85 0.36,42.19 -0.97,47.22 -2.30,52.24 -3.34,55.52 -4.38,58.80 -4.69,59.76 -5.00,60.72 -5.08,60.90 -5.16,61.08 -5.28,61.23 -5.40,61.39 -5.56,61.51 -5.71,61.63 -5.89,61.71 -6.07,61.79 -6.27,61.82 -6.46,61.86 -6.66,61.85 -6.85,61.84 -7.04,61.78 -7.23,61.72 -7.40,61.62 -7.56,61.52 -7.70,61.38 -7.84,61.24 -7.94,61.07 -8.05,60.90 -8.10,60.71 -8.16,60.53 -8.17,60.33 -8.19,60.13 -8.15,59.94 -8.12,59.75 -8.31,58.64 -8.50,57.53 -8.32,53.79 -8.13,50.05 -6.63,45.12 -5.13,40.19 -2.86,34.67 -0.60,29.15 2.21,23.56 5.04,17.97 8.33,12.79 11.63,7.62 14.88,3.12 18.13,-1.37 20.47,-4.01 22.80,-6.65 24.29,-8.07 25.77,-9.49 27.44,-10.00 29.11,-10.50 30.91,-9.17 32.72,-7.84 34.13,-4.99 35.54,-2.13 36.99,1.81 38.45,5.75 39.54,11.20 40.63,16.64 41.08,22.44 41.53,28.25 40.79,33.58 40.04,38.92 38.77,42.86 37.50,46.80 35.71,49.09 33.92,51.37 32.61,52.67 31.30,53.97 29.40,54.20 27.49,54.42 25.54,53.13 23.59,51.83 21.64,48.80 19.69,45.77 18.65,42.31 17.60,38.85 16.96,35.79 16.32,32.73 15.98,30.97 15.64,29.21 15.44,28.71 15.24,28.22 15.23,28.01 15.22,27.80 15.27,27.59 15.31,27.38 15.40,27.19 15.49,27.00 15.63,26.84 15.76,26.68 15.93,26.55 16.10,26.42 16.29,26.34 16.49,26.26 16.69,26.23 16.90,26.19 17.11,26.21 17.32,26.23 17.52,26.30 17.72,26.36 17.90,26.48 18.08,26.59 18.23,26.74 18.37,26.89 18.48,27.08 18.58,27.26 18.64,27.46 18.70,27.67 18.76,29.82 18.82,31.97 18.88,35.91 18.94,39.85 17.55,44.92 16.16,49.99 13.68,54.72 11.20,59.45 7.57,64.25 3.95,69.06 0.09,73.18 -3.77,77.30 -6.80,80.21 -9.83,83.11 -11.35,84.40 -12.88,85.69 -15.14,86.04 -17.40,86.39 -18.19,85.00 -18.97,83.61 -19.29,80.17 -19.61,76.74 -18.74,72.63 -17.87,68.51 -15.52,65.45 -13.18,62.38 -10.22,60.37 -7.27,58.36 -3.77,57.48 -0.28,56.60 4.58,57.42 9.45,58.24 13.86,60.25 18.28,62.27 22.23,64.76 26.18,67.24 29.43,69.20 32.67,71.15 35.03,72.95 37.39,74.74 39.29,76.18 41.19,77.62 42.31,78.37 43.43,79.12 44.61,79.30 45.79,79.48 45.85,78.20 45.91,76.92 46.60,75.19 47.28,73.46 47.47,73.17 47.66,72.87 47.94,72.65 48.21,72.43 48.55,72.31 48.88,72.19 49.23,72.19 49.58,72.18 49.92,72.29 50.25,72.39 50.54,72.60 50.82,72.81 51.02,73.09 51.23,73.38 51.33,73.72 51.43,74.05 51.42,74.40 51.40,74.76 51.28,75.09 51.16,75.42 50.94,75.69 50.71,75.96 50.42,76.15 50.12,76.34 49.78,76.42 49.43,76.50 49.08,76.47 48.73,76.44 48.41,76.30 48.09,76.16 47.83,75.92 47.57,75.68 47.40,75.38 47.23,75.07 47.16,74.72 47.10,74.38 47.15,74.03 47.20,73.68 47.36,73.37 47.51,73.05 47.76,72.81 48.02,72.56 48.33,72.40 48.65,72.25 49.00,72.20 49.35,72.16 49.69,72.23 50.04,72.30 50.34,72.47 50.65,72.65 50.88,72.91 51.11,73.17 51.25,73.50 51.39,73.82 51.41,74.17 51.44,74.52 51.35,74.86 51.26,75.21 51.26,75.21 51.26,75.20 50.48,76.82 49.70,78.43 48.65,80.51 47.59,82.60 45.60,82.66 43.61,82.73 42.55,82.16 41.49,81.58 40.54,80.66 39.59,79.73 37.68,78.30 35.78,76.87 33.53,75.16 31.29,73.45 28.02,71.49 24.74,69.53 20.94,67.14 17.13,64.74 13.04,62.85 8.94,60.95 4.61,60.15 0.28,59.34 -2.70,60.06 -5.70,60.78 -8.28,62.52 -10.85,64.25 -12.86,66.77 -14.87,69.28 -15.59,72.88 -16.31,76.47 -15.48,79.97 -14.66,83.48 -13.18,82.32 -11.69,81.16 -8.72,78.30 -5.75,75.44 -2.00,71.42 1.75,67.40 5.23,62.77 8.72,58.14 11.06,53.68 13.40,49.21 14.69,44.55 15.98,39.89 15.87,36.08 15.75,32.28 15.49,30.25 15.24,28.22 15.23,28.01 15.22,27.80 15.27,27.59 15.31,27.38 15.40,27.19 15.49,27.00 15.63,26.84 15.76,26.68 15.93,26.55 16.10,26.42 16.29,26.34 16.49,26.26 16.69,26.23 16.90,26.19 17.11,26.21 17.32,26.23 17.52,26.30 17.72,26.36 17.90,26.48 18.08,26.59 18.23,26.74 18.37,26.89 18.48,27.08 18.58,27.26 18.64,27.46 18.70,27.67 18.73,28.19 18.77,28.71 18.98,30.41 19.19,32.11 19.86,35.03 20.52,37.96 21.47,41.01 22.41,44.06 24.06,46.60 25.70,49.14 27.73,50.33 29.75,51.52 30.78,50.60 31.81,49.67 33.37,47.79 34.92,45.91 36.11,42.22 37.29,38.53 38.00,33.49 38.70,28.46 38.24,22.84 37.77,17.22 36.69,12.02 35.62,6.82 34.15,3.04 32.69,-0.73 31.55,-3.07 30.41,-5.41 29.00,-6.38 27.59,-7.36 26.20,-6.12 24.82,-4.87 22.57,-2.33 20.33,0.20 17.14,4.65 13.94,9.09 10.73,14.16 7.52,19.22 4.77,24.72 2.02,30.22 -0.15,35.63 -2.33,41.05 -3.72,45.62 -5.11,50.20 -5.23,53.67 -5.34,57.14 -5.17,58.93 -5.00,60.72 -5.08,60.90 -5.16,61.08 -5.28,61.23 -5.40,61.38 -5.56,61.51 -5.71,61.63 -5.89,61.71 -6.07,61.79 -6.27,61.82 -6.46,61.86 -6.66,61.85 -6.85,61.84 -7.04,61.78 -7.23,61.72 -7.40,61.62 -7.56,61.52 -7.70,61.38 -7.84,61.24 -7.94,61.07 -8.05,60.90 -8.10,60.71 -8.16,60.53 -8.17,60.33 -8.19,60.13 -8.15,59.94 -8.12,59.75 -7.57,58.86 -7.02,57.97 -6.02,54.75 -5.03,51.52 -3.76,46.65 -2.49,41.78 -1.62,35.65 -0.75,29.53 -0.83,23.54 -0.90,17.55 -1.05,11.60 -1.19,5.65 -1.48,2.90 -1.78,0.14 -1.77,-0.06 -1.76,-0.28 -1.70,-0.48 -1.64,-0.69 -1.53,-0.88 -1.43,-1.07 -1.28,-1.22 -1.13,-1.38 -0.95,-1.49 -0.77,-1.61 -0.56,-1.68 -0.36,-1.75 -0.14,-1.76 0.06,-1.78 0.28,-1.75 0.49,-1.71 0.69,-1.63 0.89,-1.55 1.06,-1.42 1.23,-1.29 1.37,-1.12 1.50,-0.95 1.60,-0.76 1.69,-0.57 1.73,-0.35 1.78,-0.14 1.78,-0.14 L 1.78,-0.14 Z"></path></g><g transform="translate(441.20001220703125 132.39999389648438) rotate(0 4 20.800010681152344)" stroke="none"><path fill="#000000" d="M 2.06,-0.13 Q 2.06,-0.13 2.19,3.31 2.32,6.77 3.02,11.14 3.72,15.51 4.24,20.22 4.76,24.92 5.41,29.17 6.07,33.42 6.34,35.73 6.61,38.03 7.08,38.99 7.56,39.94 7.56,40.15 7.56,40.35 7.51,40.55 7.47,40.75 7.37,40.94 7.28,41.12 7.14,41.27 7.01,41.43 6.84,41.55 6.67,41.67 6.48,41.74 6.29,41.81 6.09,41.84 5.88,41.87 5.68,41.84 5.48,41.82 5.28,41.75 5.09,41.68 4.92,41.56 4.75,41.45 4.61,41.30 4.47,41.14 4.38,40.96 4.28,40.78 4.23,40.58 4.18,40.38 5.27,38.40 6.37,36.42 6.53,36.22 6.69,36.02 6.91,35.88 7.13,35.74 7.38,35.69 7.64,35.63 7.89,35.65 8.15,35.67 8.39,35.78 8.62,35.88 8.81,36.06 9.01,36.23 9.13,36.46 9.25,36.69 9.30,36.94 9.35,37.19 9.31,37.45 9.27,37.71 9.15,37.94 9.04,38.17 8.85,38.35 8.67,38.53 8.43,38.64 8.20,38.75 7.94,38.78 7.69,38.82 7.43,38.77 7.18,38.71 6.96,38.58 6.73,38.45 6.56,38.26 6.39,38.07 6.29,37.83 6.19,37.59 6.18,37.33 6.16,37.07 6.22,36.82 6.29,36.57 6.43,36.36 6.57,36.14 6.77,35.98 6.98,35.82 7.22,35.73 7.47,35.65 7.72,35.64 7.98,35.64 8.23,35.72 8.47,35.80 8.68,35.95 8.89,36.10 9.04,36.31 9.19,36.53 9.26,36.77 9.33,37.02 9.32,37.28 9.31,37.54 9.22,37.78 9.13,38.02 9.13,38.02 9.13,38.02 8.34,38.98 7.56,39.94 7.56,40.15 7.56,40.35 7.51,40.55 7.47,40.75 7.37,40.94 7.28,41.12 7.14,41.27 7.01,41.43 6.84,41.55 6.67,41.67 6.48,41.74 6.29,41.81 6.09,41.84 5.88,41.87 5.68,41.84 5.48,41.82 5.28,41.75 5.09,41.68 4.92,41.56 4.75,41.45 4.61,41.30 4.47,41.14 4.38,40.96 4.28,40.78 4.23,40.58 4.18,40.38 3.94,39.40 3.70,38.43 3.38,36.17 3.05,33.92 2.31,29.61 1.56,25.31 0.95,20.71 0.34,16.11 -0.52,11.56 -1.40,7.02 -1.73,3.58 -2.06,0.13 -2.05,-0.11 -2.03,-0.36 -1.96,-0.59 -1.89,-0.83 -1.76,-1.05 -1.63,-1.26 -1.46,-1.44 -1.28,-1.62 -1.07,-1.75 -0.86,-1.88 -0.62,-1.95 -0.38,-2.03 -0.13,-2.04 0.11,-2.06 0.35,-2.02 0.60,-1.97 0.83,-1.87 1.05,-1.77 1.25,-1.62 1.45,-1.47 1.60,-1.27 1.76,-1.08 1.86,-0.85 1.97,-0.62 2.01,-0.38 2.06,-0.13 2.06,-0.13 L 2.06,-0.13 Z"></path></g><g transform="translate(468.4000244140625 137.1999969482422) rotate(0 -13.20001220703125 43.20000457763672)" stroke="none"><path fill="#000000" d="M -0.41,-1.64 Q -0.41,-1.64 0.89,-1.86 2.20,-2.08 3.38,-1.38 4.56,-0.69 5.88,2.93 7.20,6.56 8.80,12.15 10.40,17.75 11.76,24.78 13.11,31.81 13.68,38.77 14.24,45.72 14.47,52.13 14.69,58.53 13.85,63.91 13.00,69.28 11.21,73.52 9.42,77.75 6.94,80.58 4.47,83.41 1.91,84.89 -0.63,86.38 -3.71,87.02 -6.79,87.66 -10.83,86.50 -14.86,85.35 -19.33,82.97 -23.79,80.60 -28.04,77.24 -32.29,73.89 -34.82,71.03 -37.36,68.18 -38.48,67.06 -39.59,65.95 -39.72,65.74 -39.85,65.53 -39.91,65.29 -39.97,65.05 -39.95,64.81 -39.93,64.56 -39.83,64.34 -39.73,64.11 -39.56,63.93 -39.40,63.75 -39.18,63.63 -38.97,63.51 -38.72,63.46 -38.48,63.42 -38.24,63.46 -38.00,63.49 -37.78,63.60 -37.56,63.71 -37.39,63.89 -37.21,64.06 -37.11,64.28 -37.00,64.51 -36.97,64.75 -36.94,64.99 -36.98,65.23 -37.03,65.47 -37.15,65.69 -37.28,65.90 -37.46,66.06 -37.65,66.23 -37.87,66.32 -38.10,66.42 -38.34,66.44 -38.59,66.45 -38.83,66.39 -39.07,66.33 -39.27,66.20 -39.48,66.06 -39.63,65.87 -39.78,65.68 -39.87,65.45 -39.95,65.21 -39.95,64.97 -39.96,64.72 -39.88,64.49 -39.81,64.25 -39.66,64.06 -39.52,63.86 -39.32,63.71 -39.12,63.57 -38.88,63.50 -38.65,63.43 -38.40,63.44 -38.16,63.45 -37.93,63.54 -37.70,63.62 -37.51,63.78 -37.31,63.93 -37.31,63.93 -37.32,63.93 -36.35,65.18 -35.38,66.42 -33.01,69.12 -30.64,71.82 -26.59,75.04 -22.54,78.26 -18.30,80.53 -14.07,82.80 -10.62,83.91 -7.17,85.03 -4.55,84.52 -1.93,84.01 0.25,82.78 2.45,81.56 4.66,79.09 6.87,76.62 8.53,72.72 10.19,68.83 10.97,63.73 11.76,58.64 11.48,52.31 11.20,45.98 10.58,39.21 9.96,32.44 8.53,25.59 7.10,18.73 5.40,13.29 3.69,7.84 2.58,4.50 1.47,1.16 0.94,1.40 0.41,1.64 0.20,1.66 0.00,1.69 -0.19,1.67 -0.40,1.64 -0.59,1.57 -0.78,1.50 -0.95,1.38 -1.11,1.27 -1.25,1.11 -1.39,0.96 -1.48,0.78 -1.58,0.60 -1.63,0.40 -1.68,0.20 -1.68,0.00 -1.68,-0.19 -1.63,-0.39 -1.58,-0.59 -1.49,-0.77 -1.39,-0.95 -1.26,-1.11 -1.12,-1.26 -0.96,-1.38 -0.79,-1.49 -0.60,-1.57 -0.41,-1.64 -0.41,-1.64 L -0.41,-1.64 Z"></path></g><g transform="translate(513.2000122070312 118.80000305175781) rotate(0 6 6.400001525878906)" stroke="none"><path fill="#000000" d="M 1.05,-1.68 Q 1.05,-1.68 2.85,-0.45 4.64,0.76 6.68,2.80 8.71,4.83 10.74,7.69 12.76,10.54 12.88,10.82 13.01,11.09 13.04,11.40 13.07,11.70 13.00,12.00 12.93,12.29 12.77,12.55 12.61,12.81 12.37,13.00 12.14,13.20 11.85,13.31 11.57,13.41 11.27,13.43 10.96,13.44 10.67,13.35 10.38,13.27 10.13,13.10 9.88,12.92 9.70,12.68 9.52,12.43 9.42,12.14 9.33,11.85 9.33,11.55 9.34,11.24 9.44,10.96 9.54,10.67 9.73,10.43 9.92,10.19 10.17,10.02 10.42,9.86 10.72,9.78 11.01,9.70 11.32,9.72 11.62,9.74 11.90,9.86 12.18,9.98 12.41,10.18 12.64,10.38 12.79,10.64 12.95,10.90 13.01,11.20 13.07,11.50 13.03,11.80 12.99,12.10 12.86,12.38 12.73,12.65 12.52,12.87 12.31,13.09 12.04,13.22 11.77,13.36 11.47,13.41 11.16,13.45 10.87,13.40 10.57,13.35 10.30,13.20 10.03,13.05 9.83,12.83 9.62,12.61 9.62,12.61 9.62,12.61 7.99,9.92 6.37,7.23 4.54,5.53 2.71,3.83 0.82,2.75 -1.05,1.68 -1.24,1.53 -1.42,1.38 -1.57,1.19 -1.72,1.00 -1.81,0.78 -1.91,0.56 -1.95,0.32 -1.99,0.09 -1.97,-0.14 -1.95,-0.38 -1.87,-0.61 -1.80,-0.84 -1.67,-1.04 -1.54,-1.25 -1.37,-1.41 -1.20,-1.58 -0.99,-1.70 -0.79,-1.82 -0.56,-1.89 -0.32,-1.96 -0.08,-1.97 0.14,-1.98 0.38,-1.93 0.62,-1.89 0.83,-1.79 1.05,-1.68 1.05,-1.68 L 1.05,-1.68 Z"></path></g><g transform="translate(530.800048828125 181.1999969482422) rotate(0 -0.00006103515625 13.600006103515625)" stroke="none"><path fill="#000000" d="M 1.97,-0.13 Q 1.97,-0.13 2.11,3.32 2.25,6.78 2.29,10.81 2.32,14.85 2.08,17.99 1.84,21.14 1.81,22.90 1.77,24.66 1.82,25.18 1.86,25.71 1.83,25.92 1.79,26.14 1.70,26.34 1.62,26.54 1.48,26.72 1.35,26.89 1.18,27.03 1.01,27.17 0.81,27.26 0.61,27.35 0.40,27.40 0.18,27.44 -0.03,27.43 -0.25,27.42 -0.46,27.36 -0.67,27.29 -0.86,27.18 -1.05,27.07 -1.20,26.92 -1.36,26.77 -1.48,26.58 -1.59,26.40 -1.66,26.19 -1.73,25.98 -1.75,25.76 -1.76,25.54 -1.97,24.09 -2.18,22.64 -2.09,18.22 -2.00,13.79 -1.94,13.48 -1.88,13.18 -1.72,12.91 -1.56,12.64 -1.32,12.44 -1.09,12.23 -0.80,12.11 -0.51,11.99 -0.20,11.97 0.10,11.95 0.40,12.03 0.71,12.11 0.97,12.28 1.23,12.46 1.42,12.70 1.61,12.95 1.71,13.24 1.82,13.54 1.82,13.85 1.82,14.16 1.73,14.46 1.63,14.76 1.45,15.01 1.26,15.26 1.00,15.44 0.75,15.61 0.45,15.70 0.15,15.79 -0.15,15.78 -0.47,15.76 -0.76,15.65 -1.05,15.54 -1.29,15.34 -1.53,15.14 -1.69,14.87 -1.86,14.61 -1.93,14.30 -2.00,14.00 -1.97,13.69 -1.94,13.38 -1.81,13.09 -1.68,12.81 -1.47,12.58 -1.26,12.35 -0.99,12.20 -0.71,12.05 -0.40,12.00 -0.10,11.94 0.20,11.99 0.51,12.04 0.79,12.18 1.07,12.32 1.28,12.55 1.50,12.77 1.64,13.05 1.77,13.33 1.81,13.64 1.84,13.95 1.84,13.95 1.84,13.95 1.57,18.04 1.30,22.13 1.58,23.92 1.86,25.71 1.83,25.92 1.79,26.14 1.70,26.34 1.62,26.54 1.48,26.72 1.35,26.89 1.18,27.03 1.01,27.17 0.81,27.26 0.61,27.35 0.40,27.40 0.18,27.44 -0.03,27.43 -0.25,27.42 -0.46,27.36 -0.67,27.29 -0.86,27.18 -1.05,27.07 -1.20,26.92 -1.36,26.77 -1.48,26.58 -1.59,26.40 -1.66,26.19 -1.73,25.98 -1.75,25.76 -1.76,25.54 -1.65,25.02 -1.53,24.51 -1.41,22.73 -1.29,20.95 -1.15,17.94 -1.01,14.93 -1.17,10.97 -1.33,7.01 -1.65,3.57 -1.97,0.13 -1.96,-0.10 -1.94,-0.34 -1.87,-0.57 -1.80,-0.80 -1.68,-1.00 -1.56,-1.21 -1.39,-1.38 -1.22,-1.55 -1.02,-1.67 -0.82,-1.79 -0.59,-1.87 -0.36,-1.94 -0.13,-1.96 0.10,-1.97 0.34,-1.93 0.57,-1.89 0.79,-1.79 1.01,-1.69 1.20,-1.55 1.39,-1.40 1.53,-1.22 1.68,-1.03 1.78,-0.81 1.88,-0.60 1.93,-0.36 1.97,-0.13 1.97,-0.13 L 1.97,-0.13 Z"></path></g><g transform="translate(538 150.8000030517578) rotate(0 56.79998779296875 -12.400009155273438)" stroke="none"><path fill="#000000" d="M -0.63,-1.42 Q -0.63,-1.42 1.44,-2.31 3.53,-3.20 6.78,-4.28 10.03,-5.37 14.42,-6.51 18.82,-7.66 24.75,-9.73 30.69,-11.80 37.13,-14.28 43.56,-16.77 50.19,-19.65 56.82,-22.54 61.63,-25.56 66.44,-28.58 69.32,-31.40 72.21,-34.21 73.58,-37.31 74.95,-40.42 75.09,-44.09 75.22,-47.76 73.53,-51.21 71.84,-54.66 68.03,-57.89 64.22,-61.12 59.47,-63.16 54.72,-65.21 50.92,-66.09 47.11,-66.96 45.67,-67.00 44.23,-67.04 43.49,-65.38 42.75,-63.72 42.38,-60.40 42.00,-57.08 42.04,-51.52 42.08,-45.96 43.46,-39.32 44.84,-32.68 47.25,-25.03 49.67,-17.39 53.20,-9.83 56.73,-2.26 61.40,4.33 66.08,10.93 71.28,17.18 76.48,23.44 80.97,28.16 85.46,32.87 88.51,35.78 91.56,38.70 93.90,40.09 96.24,41.48 97.88,42.00 99.52,42.52 101.12,41.94 102.73,41.37 103.95,38.83 105.17,36.30 106.46,31.79 107.75,27.28 109.01,20.99 110.28,14.70 110.83,11.12 111.37,7.54 111.51,5.99 111.65,4.43 111.73,4.18 111.81,3.93 111.97,3.72 112.12,3.51 112.34,3.36 112.55,3.20 112.81,3.13 113.06,3.05 113.32,3.06 113.59,3.07 113.83,3.17 114.08,3.26 114.28,3.43 114.49,3.59 114.63,3.82 114.77,4.04 114.83,4.30 114.89,4.55 114.86,4.82 114.84,5.08 114.73,5.32 114.63,5.56 114.45,5.75 114.27,5.95 114.04,6.08 113.81,6.20 113.55,6.25 113.29,6.30 113.03,6.26 112.77,6.22 112.54,6.10 112.30,5.98 112.12,5.80 111.93,5.61 111.82,5.37 111.70,5.13 111.67,4.87 111.64,4.61 111.69,4.35 111.74,4.09 111.87,3.87 112.00,3.64 112.20,3.46 112.40,3.29 112.64,3.19 112.89,3.09 113.15,3.07 113.41,3.05 113.67,3.11 113.92,3.18 114.14,3.32 114.36,3.47 114.53,3.67 114.69,3.88 114.78,4.13 114.87,4.38 114.87,4.64 114.88,4.91 114.88,4.91 114.88,4.90 114.57,6.43 114.26,7.96 113.75,11.62 113.24,15.28 112.02,21.70 110.80,28.12 109.50,32.95 108.19,37.79 106.56,41.00 104.92,44.21 103.19,45.08 101.47,45.95 100.01,45.58 98.54,45.22 96.72,44.48 94.89,43.74 92.32,42.17 89.75,40.61 86.65,37.65 83.55,34.69 79.00,29.91 74.44,25.13 69.18,18.79 63.91,12.46 59.12,5.66 54.32,-1.13 50.72,-8.86 47.13,-16.59 44.67,-24.36 42.21,-32.13 40.80,-39.03 39.38,-45.93 39.34,-51.68 39.29,-57.42 39.80,-61.21 40.30,-65.00 41.64,-67.08 42.98,-69.16 45.33,-69.35 47.68,-69.53 51.73,-68.58 55.77,-67.63 60.84,-65.38 65.91,-63.13 70.04,-59.50 74.17,-55.86 76.00,-51.82 77.84,-47.79 77.61,-43.59 77.39,-39.39 75.75,-35.87 74.11,-32.36 70.99,-29.34 67.87,-26.32 62.89,-23.19 57.90,-20.07 51.23,-17.15 44.55,-14.23 38.08,-11.71 31.60,-9.19 25.57,-7.06 19.54,-4.93 15.25,-3.78 10.96,-2.63 7.85,-1.55 4.74,-0.47 2.69,0.47 0.63,1.42 0.45,1.48 0.27,1.53 0.08,1.54 -0.10,1.55 -0.28,1.52 -0.47,1.48 -0.64,1.41 -0.81,1.33 -0.96,1.21 -1.10,1.09 -1.22,0.95 -1.34,0.80 -1.41,0.62 -1.49,0.45 -1.52,0.27 -1.55,0.08 -1.54,-0.10 -1.53,-0.28 -1.47,-0.46 -1.42,-0.64 -1.32,-0.80 -1.22,-0.96 -1.09,-1.10 -0.95,-1.23 -0.79,-1.33 -0.63,-1.42 -0.63,-1.42 L -0.63,-1.42 Z"></path></g><g transform="translate(611.5999755859375 90.80000305175781) rotate(0 -24.79998779296875 50)" stroke="none"><path fill="#000000" d="M 1.56,0 Q 1.56,0 1.52,2.53 1.49,5.06 1.46,8.44 1.44,11.82 0.25,16.42 -0.93,21.02 -3.79,26.49 -6.65,31.96 -10.90,37.32 -15.16,42.67 -20.65,48.62 -26.14,54.57 -31.22,60.07 -36.30,65.57 -39.64,68.85 -42.97,72.13 -44.61,73.74 -46.24,75.35 -46.63,75.89 -47.02,76.42 -47.17,76.53 -47.32,76.65 -47.49,76.72 -47.66,76.80 -47.84,76.83 -48.02,76.86 -48.21,76.85 -48.40,76.84 -48.57,76.78 -48.75,76.73 -48.91,76.63 -49.07,76.53 -49.20,76.40 -49.33,76.27 -49.43,76.11 -49.52,75.95 -49.58,75.77 -49.63,75.59 -49.64,75.40 -49.65,75.22 -49.62,75.03 -49.58,74.85 -49.50,74.68 -49.43,74.51 -49.31,74.37 -49.19,74.22 -47.82,73.06 -46.44,71.90 -45.22,72.22 -44.00,72.54 -43.20,74.91 -42.40,77.28 -41.72,78.89 -41.04,80.51 -39.51,82.51 -37.97,84.51 -36.24,86.04 -34.52,87.58 -33.41,88.44 -32.31,89.30 -31.61,90.33 -30.91,91.37 -31.11,93.00 -31.30,94.63 -33.88,96.55 -36.45,98.47 -38.02,99.78 -39.60,101.08 -39.90,101.24 -40.19,101.40 -40.52,101.46 -40.86,101.52 -41.19,101.46 -41.52,101.41 -41.82,101.25 -42.12,101.10 -42.35,100.85 -42.58,100.61 -42.73,100.31 -42.87,100.00 -42.91,99.67 -42.94,99.33 -42.87,99.00 -42.80,98.68 -42.63,98.39 -42.46,98.10 -42.20,97.88 -41.95,97.66 -41.64,97.53 -41.32,97.41 -40.99,97.39 -40.65,97.37 -40.33,97.45 -40.00,97.54 -39.72,97.73 -39.44,97.92 -39.24,98.18 -39.03,98.45 -38.92,98.77 -38.82,99.09 -38.81,99.42 -38.81,99.76 -38.92,100.08 -39.02,100.40 -39.23,100.67 -39.43,100.94 -39.71,101.13 -39.98,101.32 -40.31,101.41 -40.63,101.50 -40.97,101.49 -41.30,101.47 -41.62,101.35 -41.93,101.22 -42.19,101.01 -42.45,100.79 -42.62,100.50 -42.80,100.21 -42.87,99.89 -42.94,99.56 -42.91,99.22 -42.87,98.89 -42.73,98.58 -42.59,98.28 -42.36,98.03 -42.13,97.79 -42.13,97.79 -42.13,97.79 -40.41,96.56 -38.68,95.33 -36.70,93.66 -34.73,91.99 -35.68,91.03 -36.64,90.07 -38.68,88.39 -40.71,86.71 -42.63,84.40 -44.54,82.09 -45.48,80.06 -46.42,78.03 -45.78,76.51 -45.13,74.99 -46.07,75.71 -47.02,76.42 -47.17,76.53 -47.32,76.65 -47.49,76.72 -47.66,76.80 -47.84,76.83 -48.02,76.86 -48.21,76.85 -48.40,76.84 -48.57,76.78 -48.75,76.73 -48.91,76.63 -49.07,76.53 -49.20,76.40 -49.33,76.27 -49.43,76.11 -49.52,75.95 -49.58,75.77 -49.63,75.59 -49.64,75.40 -49.65,75.22 -49.62,75.03 -49.58,74.85 -49.50,74.68 -49.43,74.51 -49.31,74.37 -49.19,74.22 -48.65,73.84 -48.11,73.46 -46.47,71.85 -44.84,70.23 -41.56,66.99 -38.27,63.75 -33.20,58.24 -28.12,52.74 -22.71,46.86 -17.29,40.98 -13.19,35.82 -9.10,30.67 -6.38,25.48 -3.66,20.29 -2.55,16.04 -1.44,11.79 -1.46,8.42 -1.49,5.06 -1.52,2.53 -1.56,0 -1.53,-0.18 -1.51,-0.37 -1.45,-0.54 -1.38,-0.72 -1.27,-0.88 -1.16,-1.03 -1.02,-1.16 -0.88,-1.28 -0.72,-1.37 -0.55,-1.46 -0.37,-1.50 -0.18,-1.55 0.00,-1.55 0.18,-1.55 0.37,-1.50 0.55,-1.46 0.72,-1.37 0.88,-1.28 1.02,-1.16 1.16,-1.03 1.27,-0.88 1.38,-0.72 1.45,-0.54 1.51,-0.37 1.53,-0.18 1.56,0.00 1.56,0.00 L 1.56,0 Z"></path></g><g transform="translate(241.20001220703125 327.59999084472656) rotate(0 0.399993896484375 0)" stroke="none"><path fill="#000000" d="M 2.12,-0.66 Q 2.12,-0.66 2.15,-0.13 2.18,0.40 1.96,0.88 1.74,1.36 1.32,1.69 0.91,2.02 0.38,2.12 -0.13,2.21 -0.64,2.05 -1.14,1.90 -1.52,1.52 -1.90,1.14 -2.05,0.64 -2.21,0.13 -2.12,-0.38 -2.02,-0.91 -1.69,-1.32 -1.36,-1.74 -0.88,-1.96 -0.39,-2.18 0.13,-2.15 0.66,-2.11 1.11,-1.84 1.57,-1.56 1.84,-1.11 L 2.12,-0.66 Z"></path></g><g transform="translate(10 10) rotate(0 336.4000244140625 186.00000762939453)" stroke="none"><path fill="#000000" d="M 1.02,-1.17 Q 1.02,-1.17 2.84,0.45 4.66,2.09 8.43,5.56 12.19,9.04 21.58,16.93 30.97,24.83 47.36,37.15 63.74,49.46 88.18,66.19 112.61,82.92 148.04,104.28 183.46,125.64 228.42,151.05 273.37,176.46 323.28,202.20 373.19,227.94 420.38,250.61 467.58,273.28 508.33,291.88 549.08,310.49 576.98,322.76 604.88,335.04 621.80,342.79 638.73,350.54 647.56,355.00 656.38,359.45 660.63,362.06 664.87,364.66 666.91,366.00 668.95,367.35 670.96,368.88 672.97,370.42 673.15,370.56 673.34,370.71 673.48,370.90 673.61,371.10 673.68,371.33 673.74,371.56 673.73,371.80 673.72,372.04 673.63,372.26 673.54,372.48 673.39,372.66 673.23,372.84 673.03,372.97 672.82,373.09 672.59,373.14 672.36,373.19 672.12,373.17 671.89,373.14 671.67,373.04 671.45,372.94 671.28,372.78 671.11,372.62 670.99,372.40 670.88,372.19 670.84,371.96 670.80,371.72 670.84,371.49 670.88,371.25 670.99,371.04 671.10,370.83 671.28,370.67 671.45,370.50 671.66,370.40 671.88,370.30 672.12,370.28 672.35,370.25 672.59,370.30 672.82,370.35 673.02,370.48 673.23,370.60 673.38,370.78 673.54,370.96 673.63,371.18 673.72,371.40 673.73,371.64 673.74,371.88 673.68,372.11 673.62,372.34 673.48,372.54 673.35,372.73 673.16,372.88 672.97,373.02 672.74,373.10 672.52,373.17 672.28,373.18 672.04,373.18 671.82,373.10 671.59,373.02 671.59,373.02 671.59,373.02 669.54,371.27 667.48,369.52 665.49,368.21 663.50,366.91 659.34,364.35 655.19,361.80 646.41,357.37 637.63,352.94 620.72,345.20 603.81,337.45 575.90,325.17 547.98,312.89 507.21,294.28 466.43,275.67 419.20,252.99 371.97,230.31 322.01,204.55 272.05,178.79 227.06,153.37 182.07,127.95 146.57,106.56 111.07,85.17 86.58,68.42 62.08,51.68 45.62,39.33 29.16,26.99 19.70,19.08 10.24,11.17 6.47,7.76 2.69,4.34 0.83,2.76 -1.02,1.17 -1.15,1.03 -1.28,0.89 -1.36,0.72 -1.45,0.56 -1.50,0.38 -1.54,0.19 -1.55,0.00 -1.55,-0.17 -1.50,-0.36 -1.46,-0.54 -1.37,-0.71 -1.29,-0.87 -1.16,-1.02 -1.04,-1.16 -0.88,-1.27 -0.73,-1.37 -0.55,-1.44 -0.38,-1.51 -0.19,-1.53 -0.00,-1.56 0.17,-1.54 0.36,-1.51 0.54,-1.45 0.71,-1.38 0.87,-1.28 1.02,-1.17 1.02,-1.17 L 1.02,-1.17 Z"></path></g></svg>